<svg width="24" height="17" viewBox="0 0 24 17" fill="none" xmlns="http://www.w3.org/2000/svg">
<g clip-path="url(#clip0_177_52)">
<path d="M1.61035 1.44116H22.3896V15.5588H1.61035V1.44116Z" fill="#FDFDFD"/>
<path d="M10.4415 1.44116H13.5584V15.5588H10.4415V1.44116Z" fill="#FF0000"/>
<path d="M1.61035 7.08826H22.3896V9.91179H1.61035V7.08826Z" fill="#FF0000"/>
<g style="mix-blend-mode:multiply">
<path fill-rule="evenodd" clip-rule="evenodd" d="M6.3782 12.4163C6.41141 11.9215 6.50706 11.5 6.50706 11.5C6.50706 11.5 6.18758 11.5297 6.02599 11.5297C5.86683 11.5297 5.54501 11.5 5.54501 11.5C5.54501 11.5 5.64066 11.9215 5.67388 12.4163C5.12761 12.3861 4.66235 12.2996 4.66235 12.2996C4.66235 12.2996 4.69508 12.5174 4.69508 12.7353C4.69508 12.9533 4.66235 13.171 4.66235 13.171C4.66235 13.171 5.12764 13.0845 5.67388 13.0543C5.64066 13.5491 5.54498 13.9706 5.54498 13.9706C5.54498 13.9706 5.78556 13.9409 6.02599 13.9409C6.26657 13.9409 6.50706 13.9706 6.50706 13.9706C6.50706 13.9706 6.41141 13.5491 6.37817 13.0543C6.92434 13.0845 7.38963 13.171 7.38963 13.171C7.38963 13.171 7.35699 12.8816 7.35699 12.7353C7.35699 12.5911 7.38963 12.2996 7.38963 12.2996C7.38963 12.2996 6.92434 12.3861 6.3782 12.4163ZM18.3261 3.94574C18.3595 3.45092 18.4551 3.02942 18.4551 3.02942C18.4551 3.02942 18.1356 3.05907 17.974 3.05907C17.8149 3.05907 17.4931 3.02942 17.4931 3.02942C17.4931 3.02942 17.5886 3.45092 17.6219 3.94574C17.0757 3.91556 16.6104 3.829 16.6104 3.829C16.6104 3.829 16.6431 4.04686 16.6431 4.26471C16.6431 4.48265 16.6104 4.70042 16.6104 4.70042C16.6104 4.70042 17.0757 4.61386 17.6219 4.58369C17.5887 5.07851 17.4931 5.50001 17.4931 5.50001C17.4931 5.50001 17.7335 5.47036 17.974 5.47036C18.2147 5.47036 18.455 5.50001 18.455 5.50001C18.455 5.50001 18.3595 5.07851 18.3261 4.58369C18.8724 4.61386 19.3377 4.70042 19.3377 4.70042C19.3377 4.70042 19.305 4.41101 19.305 4.26471C19.305 4.12053 19.3377 3.829 19.3377 3.829C19.3377 3.829 18.8724 3.91556 18.3261 3.94574ZM6.3782 3.94574C6.41138 3.45092 6.50706 3.02942 6.50706 3.02942C6.50706 3.02942 6.18758 3.05907 6.02599 3.05907C5.86683 3.05907 5.54501 3.02942 5.54501 3.02942C5.54501 3.02942 5.64066 3.45092 5.67388 3.94574C5.12761 3.91556 4.66235 3.829 4.66235 3.829C4.66235 3.829 4.69508 4.04686 4.69508 4.26471C4.69508 4.48265 4.66235 4.70042 4.66235 4.70042C4.66235 4.70042 5.12764 4.61386 5.67388 4.58369C5.64066 5.07851 5.54498 5.50001 5.54498 5.50001C5.54498 5.50001 5.78556 5.47036 6.02599 5.47036C6.26657 5.47036 6.50706 5.50001 6.50706 5.50001C6.50706 5.50001 6.41141 5.07851 6.37817 4.58369C6.92434 4.61386 7.38963 4.70042 7.38963 4.70042C7.38963 4.70042 7.35699 4.41101 7.35699 4.26471C7.35699 4.12053 7.38963 3.829 7.38963 3.829C7.38963 3.829 6.92434 3.91556 6.3782 3.94574ZM18.3261 12.4163C18.3595 11.9215 18.4551 11.5 18.4551 11.5C18.4551 11.5 18.1356 11.5297 17.974 11.5297C17.8149 11.5297 17.4931 11.5 17.4931 11.5C17.4931 11.5 17.5886 11.9215 17.6219 12.4163C17.0757 12.3861 16.6104 12.2996 16.6104 12.2996C16.6104 12.2996 16.6431 12.5174 16.6431 12.7353C16.6431 12.9533 16.6104 13.171 16.6104 13.171C16.6104 13.171 17.0757 13.0845 17.6219 13.0543C17.5887 13.5491 17.4931 13.9706 17.4931 13.9706C17.4931 13.9706 17.7335 13.9409 17.974 13.9409C18.2147 13.9409 18.455 13.9706 18.455 13.9706C18.455 13.9706 18.3595 13.5491 18.3261 13.0543C18.8724 13.0845 19.3377 13.171 19.3377 13.171C19.3377 13.171 19.305 12.8816 19.305 12.7353C19.305 12.5911 19.3377 12.2996 19.3377 12.2996C19.3377 12.2996 18.8724 12.3861 18.3261 12.4163Z" fill="#FF0000"/>
</g>
<path d="M20.3116 1.20593H3.68825C2.39719 1.20593 1.35059 2.15404 1.35059 3.32358V13.6765C1.35059 14.8461 2.39719 15.7942 3.68825 15.7942H20.3116C21.6027 15.7942 22.6493 14.8461 22.6493 13.6765V3.32358C22.6493 2.15404 21.6027 1.20593 20.3116 1.20593Z" stroke="#EFEFEF" stroke-width="0.5"/>
</g>
<defs>
<clipPath id="clip0_177_52">
<rect width="22.8571" height="16" fill="white" transform="translate(0.571411 0.5)"/>
</clipPath>
</defs>
</svg>
