<svg width="24" height="17" viewBox="0 0 24 17" fill="none" xmlns="http://www.w3.org/2000/svg">
<mask id="mask0_177_60" style="mask-type:luminance" maskUnits="userSpaceOnUse" x="1" y="1" width="22" height="15">
<path d="M20.3117 1.77734H3.68827C2.54067 1.77734 1.61035 2.57997 1.61035 3.57006V13.43C1.61035 14.4201 2.54067 15.2227 3.68827 15.2227H20.3117C21.4593 15.2227 22.3896 14.4201 22.3896 13.43V3.57006C22.3896 2.57997 21.4593 1.77734 20.3117 1.77734Z" fill="white"/>
</mask>
<g mask="url(#mask0_177_60)">
<path fill-rule="evenodd" clip-rule="evenodd" d="M1.61035 1.77734H31.2211V2.81162H1.61035V1.77734ZM1.61035 3.84588H31.2211V4.88015H1.61035V3.84588ZM1.61035 5.91442H31.2211V6.9487H1.61035V5.91442ZM1.61035 7.98296H31.2211V9.01723H1.61035V7.98296ZM1.61035 10.0515H31.2211V11.0858H1.61035V10.0515ZM1.61035 12.1201H31.2211V13.1543H1.61035V12.1201ZM1.61035 14.1886H31.2211V15.2228H1.61035V14.1886Z" fill="#BD3D44"/>
<path fill-rule="evenodd" clip-rule="evenodd" d="M1.61035 2.81201H31.2211V3.84628H1.61035V2.81201ZM1.61035 4.88055H31.2211V5.91482H1.61035V4.88055ZM1.61035 6.94909H31.2211V7.98336H1.61035V6.94909ZM1.61035 9.01763H31.2211V10.0519H1.61035V9.01763ZM1.61035 11.0862H31.2211V12.1204H1.61035V11.0862ZM1.61035 13.1547H31.2211V14.189H1.61035V13.1547Z" fill="white"/>
<path fill-rule="evenodd" clip-rule="evenodd" d="M1.61035 1.77734H13.4545V9.01711H1.61035V1.77734Z" fill="#192F5D"/>
<path fill-rule="evenodd" clip-rule="evenodd" d="M2.59848 2.08716L2.70623 2.37329H3.055L2.77284 2.55016L2.88062 2.8363L2.59845 2.65946L2.31635 2.8363L2.4241 2.55016L2.14197 2.37329H2.4907L2.59848 2.08716ZM4.57249 2.08716L4.68027 2.37329H5.02904L4.74688 2.55016L4.85466 2.8363L4.57249 2.65946L4.29039 2.8363L4.39814 2.55016L4.11601 2.37329H4.46474L4.57249 2.08716ZM6.5466 2.08716L6.65435 2.37329H7.00312L6.72095 2.55016L6.82873 2.8363L6.5466 2.65946L6.26447 2.8363L6.37222 2.55016L6.09009 2.37329H6.43885L6.5466 2.08716ZM8.52059 2.08716L8.62834 2.37329H8.97708L8.69493 2.55016L8.80269 2.8363L8.52059 2.65946L8.23842 2.8363L8.34621 2.55016L8.06405 2.37329H8.4128L8.52059 2.08716ZM10.4947 2.08716L10.6024 2.37329H10.9512L10.669 2.55016L10.7768 2.8363L10.4946 2.65946L10.2125 2.8363L10.3203 2.55016L10.0382 2.37329H10.3869L10.4947 2.08716ZM12.4687 2.08716L12.5765 2.37329H12.9252L12.6431 2.55016L12.7509 2.8363L12.4687 2.65946L12.1866 2.8363L12.2944 2.55016L12.0122 2.37329H12.361L12.4687 2.08716ZM3.58553 2.81116L3.69328 3.0973H4.04205L3.75988 3.27413L3.86769 3.5603L3.58553 3.38345L3.3034 3.5603L3.41115 3.27413L3.12902 3.0973H3.47778L3.58553 2.81116ZM5.55952 2.81116L5.66727 3.0973H6.016L5.73387 3.27413L5.84162 3.5603L5.55952 3.38345L5.27735 3.5603L5.38514 3.27413L5.10298 3.0973H5.45173L5.55952 2.81116ZM7.53359 2.81116L7.64134 3.0973H7.99011L7.70794 3.27413L7.81572 3.5603L7.53356 3.38345L7.25146 3.5603L7.35921 3.27413L7.07708 3.0973H7.42581L7.53359 2.81116ZM9.50767 2.81116L9.61542 3.0973H9.96419L9.68202 3.27413L9.7898 3.5603L9.50767 3.38345L9.22551 3.5603L9.33335 3.27413L9.05119 3.0973H9.39995L9.50767 2.81116ZM11.4817 2.81116L11.5894 3.0973H11.9381L11.656 3.27413L11.7638 3.5603L11.4817 3.38345L11.1995 3.5603L11.3072 3.27413L11.0251 3.0973H11.3738L11.4817 2.81116ZM2.59848 3.53514L2.70623 3.82127H3.055L2.77284 3.99814L2.88062 4.28428L2.59845 4.10743L2.31635 4.28428L2.4241 3.99814L2.14197 3.82127H2.4907L2.59848 3.53514ZM4.57249 3.53514L4.68027 3.82127H5.02904L4.74688 3.99814L4.85466 4.28428L4.57249 4.10743L4.29039 4.28428L4.39814 3.99814L4.11601 3.82127H4.46474L4.57249 3.53514ZM6.5466 3.53514L6.65435 3.82127H7.00312L6.72095 3.99814L6.82873 4.28428L6.5466 4.10743L6.26447 4.28428L6.37222 3.99814L6.09009 3.82127H6.43885L6.5466 3.53514ZM8.52059 3.53514L8.62834 3.82127H8.97708L8.69493 3.99814L8.80269 4.28428L8.52059 4.10743L8.23842 4.28428L8.34621 3.99814L8.06405 3.82127H8.4128L8.52059 3.53514ZM10.4947 3.53514L10.6024 3.82127H10.9512L10.669 3.99814L10.7768 4.28428L10.4946 4.10743L10.2125 4.28428L10.3203 3.99814L10.0382 3.82127H10.3869L10.4947 3.53514ZM12.4687 3.53514L12.5765 3.82127H12.9252L12.6431 3.99814L12.7509 4.28428L12.4687 4.10743L12.1866 4.28428L12.2944 3.99814L12.0122 3.82127H12.361L12.4687 3.53514ZM3.58553 4.25912L3.69328 4.54528H4.04205L3.75988 4.72211L3.86769 5.00827L3.58553 4.83143L3.3034 5.00827L3.41115 4.72211L3.12902 4.54528H3.47778L3.58553 4.25912ZM5.55952 4.25912L5.66727 4.54528H6.016L5.73387 4.72211L5.84162 5.00827L5.55952 4.83143L5.27735 5.00827L5.38514 4.72211L5.10298 4.54528H5.45173L5.55952 4.25912ZM7.53359 4.25912L7.64134 4.54528H7.99011L7.70794 4.72211L7.81572 5.00827L7.53356 4.83143L7.25146 5.00827L7.35921 4.72211L7.07708 4.54528H7.42581L7.53359 4.25912ZM9.50767 4.25912L9.61542 4.54528H9.96419L9.68202 4.72211L9.7898 5.00827L9.50767 4.83143L9.22551 5.00827L9.33332 4.72211L9.05116 4.54528H9.39992L9.50767 4.25912ZM11.4817 4.25912L11.5894 4.54528H11.9381L11.656 4.72211L11.7638 5.00827L11.4817 4.83143L11.1995 5.00827L11.3072 4.72211L11.0251 4.54528H11.3738L11.4817 4.25912ZM2.59848 4.98311L2.70623 5.26925H3.055L2.77284 5.44612L2.88062 5.73225L2.59845 5.55541L2.31635 5.73225L2.4241 5.44612L2.14197 5.26925H2.4907L2.59848 4.98311ZM4.57249 4.98311L4.68027 5.26925H5.02904L4.74688 5.44612L4.85466 5.73225L4.57249 5.55541L4.29039 5.73225L4.39814 5.44612L4.11601 5.26925H4.46474L4.57249 4.98311ZM6.5466 4.98311L6.65435 5.26925H7.00312L6.72095 5.44612L6.82873 5.73225L6.5466 5.55541L6.26447 5.73225L6.37222 5.44612L6.09009 5.26925H6.43885L6.5466 4.98311ZM8.52059 4.98311L8.62834 5.26925H8.97708L8.69493 5.44612L8.80269 5.73225L8.52059 5.55541L8.23842 5.73225L8.34621 5.44612L8.06405 5.26925H8.4128L8.52059 4.98311ZM10.4947 4.98311L10.6024 5.26925H10.9512L10.669 5.44612L10.7768 5.73225L10.4946 5.55541L10.2125 5.73225L10.3203 5.44612L10.0382 5.26925H10.3869L10.4947 4.98311ZM12.4687 4.98311L12.5765 5.26925H12.9252L12.6431 5.44612L12.7509 5.73225L12.4687 5.55541L12.1866 5.73225L12.2944 5.44612L12.0122 5.26925H12.361L12.4687 4.98311ZM3.58553 5.70709L3.69328 5.99326H4.04205L3.75988 6.17009L3.86769 6.45625L3.58553 6.27942L3.3034 6.45625L3.41115 6.17009L3.12902 5.99326H3.47778L3.58553 5.70709ZM5.55952 5.70709L5.66727 5.99326H6.016L5.73387 6.17009L5.84162 6.45625L5.55952 6.27942L5.27735 6.45625L5.38514 6.17009L5.10298 5.99326H5.45173L5.55952 5.70709ZM7.53359 5.70709L7.64134 5.99326H7.99011L7.70794 6.17009L7.81572 6.45625L7.53356 6.27942L7.25146 6.45625L7.35921 6.17009L7.07708 5.99326H7.42581L7.53359 5.70709ZM9.50767 5.70709L9.61542 5.99326H9.96419L9.68202 6.17009L9.7898 6.45625L9.50767 6.27942L9.22551 6.45625L9.33332 6.17009L9.05116 5.99326H9.39992L9.50767 5.70709ZM11.4817 5.70709L11.5894 5.99326H11.9381L11.656 6.17009L11.7638 6.45625L11.4817 6.27942L11.1995 6.45625L11.3072 6.17009L11.0251 5.99326H11.3738L11.4817 5.70709ZM2.59848 6.43109L2.70623 6.71723H3.055L2.77284 6.8941L2.88062 7.18023L2.59845 7.00339L2.31635 7.18023L2.4241 6.8941L2.14197 6.71723H2.4907L2.59848 6.43109ZM4.57249 6.43109L4.68027 6.71723H5.02904L4.74688 6.8941L4.85466 7.18023L4.57249 7.00339L4.29039 7.18023L4.39814 6.8941L4.11601 6.71723H4.46474L4.57249 6.43109ZM6.5466 6.43109L6.65435 6.71723H7.00312L6.72095 6.8941L6.82873 7.18023L6.5466 7.00339L6.26447 7.18023L6.37222 6.8941L6.09009 6.71723H6.43885L6.5466 6.43109ZM8.52059 6.43109L8.62834 6.71723H8.97708L8.69493 6.8941L8.80269 7.18023L8.52059 7.00339L8.23842 7.18023L8.34621 6.8941L8.06405 6.71723H8.4128L8.52059 6.43109ZM10.4947 6.43109L10.6024 6.71723H10.9512L10.669 6.8941L10.7768 7.18023L10.4946 7.00339L10.2125 7.18023L10.3203 6.8941L10.0382 6.71723H10.3869L10.4947 6.43109ZM12.4687 6.43109L12.5765 6.71723H12.9252L12.6431 6.8941L12.7509 7.18023L12.4687 7.00339L12.1866 7.18023L12.2944 6.8941L12.0122 6.71723H12.361L12.4687 6.43109ZM3.58553 7.15507L3.69328 7.44123H4.04205L3.75988 7.61807L3.86769 7.90423L3.58553 7.7274L3.3034 7.90423L3.41115 7.61807L3.12902 7.44123H3.47778L3.58553 7.15507ZM5.55952 7.15507L5.66727 7.44123H6.016L5.73387 7.61807L5.84162 7.90423L5.55952 7.7274L5.27735 7.90423L5.38514 7.61807L5.10298 7.44123H5.45173L5.55952 7.15507ZM7.53359 7.15507L7.64134 7.44123H7.99011L7.70794 7.61807L7.81572 7.90423L7.53356 7.7274L7.25146 7.90423L7.35921 7.61807L7.07708 7.44123H7.42581L7.53359 7.15507ZM9.50767 7.15507L9.61542 7.44123H9.96419L9.68202 7.61807L9.7898 7.90423L9.50767 7.7274L9.22551 7.90423L9.33332 7.61807L9.05116 7.44123H9.39992L9.50767 7.15507ZM11.4817 7.15507L11.5894 7.44123H11.9381L11.656 7.61807L11.7638 7.90423L11.4817 7.7274L11.1995 7.90423L11.3072 7.61807L11.0251 7.44123H11.3738L11.4817 7.15507ZM2.59848 7.87907L2.70623 8.1652H3.055L2.77284 8.34207L2.88062 8.62821L2.59845 8.45137L2.31635 8.62821L2.4241 8.34207L2.14197 8.1652H2.4907L2.59848 7.87907ZM4.57249 7.87907L4.68027 8.1652H5.02904L4.74688 8.34207L4.85466 8.62821L4.57249 8.45137L4.29039 8.62821L4.39814 8.34207L4.11601 8.1652H4.46474L4.57249 7.87907ZM6.5466 7.87907L6.65435 8.1652H7.00312L6.72095 8.34207L6.82873 8.62821L6.5466 8.45137L6.26447 8.62821L6.37222 8.34207L6.09009 8.1652H6.43885L6.5466 7.87907ZM8.52059 7.87907L8.62834 8.1652H8.97708L8.69493 8.34207L8.80269 8.62821L8.52059 8.45137L8.23842 8.62821L8.34621 8.34207L8.06405 8.1652H8.4128L8.52059 7.87907ZM10.4947 7.87907L10.6024 8.1652H10.9512L10.669 8.34207L10.7768 8.62821L10.4946 8.45137L10.2125 8.62821L10.3203 8.34207L10.0382 8.1652H10.3869L10.4947 7.87907ZM12.4687 7.87907L12.5765 8.1652H12.9252L12.6431 8.34207L12.7509 8.62821L12.4687 8.45137L12.1866 8.62821L12.2944 8.34207L12.0122 8.1652H12.361L12.4687 7.87907Z" fill="white"/>
</g>
<path d="M20.3116 1.55322H3.68825C2.39719 1.55322 1.35059 2.45618 1.35059 3.57003V13.43C1.35059 14.5438 2.39719 15.4468 3.68825 15.4468H20.3116C21.6027 15.4468 22.6493 14.5438 22.6493 13.43V3.57003C22.6493 2.45618 21.6027 1.55322 20.3116 1.55322Z" stroke="#EFEFEF" stroke-width="0.5"/>
</svg>
