<svg width="28" height="33" viewBox="0 0 28 33" fill="none" xmlns="http://www.w3.org/2000/svg">
<path fill-rule="evenodd" clip-rule="evenodd" d="M11.9479 4.70841C13.3295 3.29462 15.2034 2.50024 17.1575 2.5H20.9468C21.226 2.5 21.4937 2.61346 21.6911 2.81542C21.8885 3.01739 21.9994 3.29131 21.9994 3.57692V8.74615C21.9994 9.03177 21.8885 9.30569 21.6911 9.50765C21.4937 9.70962 21.226 9.82308 20.9468 9.82308H17.1575C17.1298 9.82308 17.1025 9.82865 17.0769 9.83947C17.0514 9.8503 17.0282 9.86616 17.0086 9.88616C16.9891 9.90616 16.9736 9.92991 16.963 9.95604C16.9524 9.98217 16.947 10.0102 16.947 10.0385V12.8385H20.9468C21.1068 12.8384 21.2648 12.8756 21.4086 12.9473C21.5525 13.0191 21.6784 13.1234 21.7769 13.2525C21.8754 13.3815 21.9439 13.5318 21.9771 13.6919C22.0103 13.8521 22.0074 14.0179 21.9685 14.1767L20.7054 19.3459C20.6484 19.579 20.5169 19.7859 20.3318 19.9337C20.1467 20.0815 19.9185 20.1617 19.6837 20.1615H16.947V29.4231C16.947 29.7087 16.8361 29.9826 16.6387 30.1846C16.4413 30.3865 16.1735 30.5 15.8944 30.5H10.8419C10.5628 30.5 10.295 30.3865 10.0976 30.1846C9.90023 29.9826 9.78933 29.7087 9.78933 29.4231V20.1615H7.05259C6.77343 20.1615 6.5057 20.0481 6.3083 19.8461C6.1109 19.6442 6 19.3702 6 19.0846V13.9154C6 13.774 6.02723 13.6339 6.08012 13.5033C6.13302 13.3726 6.21055 13.2539 6.3083 13.1539C6.40604 13.0539 6.52208 12.9746 6.64978 12.9204C6.77749 12.8663 6.91436 12.8385 7.05259 12.8385H9.78933V10.0385C9.78957 8.03923 10.566 6.12196 11.9479 4.70841ZM17.1575 4.65385C15.7617 4.65385 14.423 5.22115 13.436 6.23096C12.449 7.24078 11.8945 8.61037 11.8945 10.0385V13.9154C11.8945 14.201 11.7836 14.4749 11.5862 14.6769C11.3888 14.8788 11.1211 14.9923 10.8419 14.9923H8.10519V18.0077H10.8419C11.1211 18.0077 11.3888 18.1212 11.5862 18.3231C11.7836 18.5251 11.8945 18.799 11.8945 19.0846V28.3462H14.8418V19.0846C14.8418 18.799 14.9527 18.5251 15.1501 18.3231C15.3475 18.1212 15.6152 18.0077 15.8944 18.0077H18.8613L19.5981 14.9923H15.8944C15.6152 14.9923 15.3475 14.8788 15.1501 14.6769C14.9527 14.4749 14.8418 14.201 14.8418 13.9154V10.0385C14.8418 9.4101 15.0858 8.80748 15.52 8.36316C15.9543 7.91885 16.5433 7.66923 17.1575 7.66923H19.8942V4.65385H17.1575Z" fill="black"/>
</svg>
