<svg width="24" height="25" viewBox="0 0 24 25" fill="none" xmlns="http://www.w3.org/2000/svg">
<g clip-path="url(#clip0_133_258)">
<path d="M11 9.79585C9.59002 9.37548 8.08343 9.41007 6.69423 9.89471C5.30504 10.3794 4.10387 11.2894 3.26134 12.4956C2.41881 13.7018 1.97777 15.1428 2.00086 16.6139C2.02395 18.085 2.51 19.5115 3.38997 20.6906C4.26994 21.8698 5.49908 22.7417 6.9028 23.1825C8.30652 23.6233 9.81345 23.6106 11.2095 23.1462C12.6056 22.6818 13.8199 21.7893 14.6798 20.5954C15.5398 19.4016 16.0017 17.9672 16 16.4958V9.49585C17.3333 10.8292 19.3333 11.4958 22 11.4958V6.49585C19.3333 6.49585 17.3333 4.82918 16 1.49585H11V16.4958M11 16.4958C11 16.1003 10.8827 15.7136 10.6629 15.3847C10.4432 15.0558 10.1308 14.7995 9.76536 14.6481C9.39991 14.4967 8.99778 14.4571 8.60982 14.5343C8.22185 14.6114 7.86549 14.8019 7.58578 15.0816C7.30608 15.3613 7.1156 15.7177 7.03842 16.1057C6.96125 16.4936 7.00086 16.8958 7.15224 17.2612C7.30361 17.6267 7.55996 17.939 7.88886 18.1588C8.21775 18.3786 8.60443 18.4958 9 18.4958C9.53043 18.4958 10.0391 18.2851 10.4142 17.9101C10.7893 17.535 11 17.0263 11 16.4958Z" stroke="black" stroke-width="2" stroke-linecap="round" stroke-linejoin="round"/>
</g>
<defs>
<clipPath id="clip0_133_258">
<rect width="24" height="24.0082" fill="white" transform="translate(0 0.49585)"/>
</clipPath>
</defs>
</svg>
