<svg width="17" height="12" viewBox="0 0 17 12" fill="none" xmlns="http://www.w3.org/2000/svg">
<path fill-rule="evenodd" clip-rule="evenodd" d="M16.55 0.28488C17.015 0.69588 17.0585 1.40688 16.6475 1.87488L8.02254 11.6249C7.92293 11.7375 7.80176 11.829 7.66618 11.894C7.5306 11.959 7.38337 11.9962 7.23319 12.0033C7.08301 12.0104 6.93292 11.9874 6.79179 11.9355C6.65067 11.8837 6.52137 11.8041 6.41154 11.7014L0.786537 6.45138C0.570143 6.24745 0.443284 5.96614 0.433692 5.66895C0.424099 5.37176 0.532552 5.08286 0.735345 4.8654C0.938137 4.64793 1.21877 4.5196 1.51591 4.50845C1.81305 4.4973 2.10251 4.60423 2.32104 4.80588L7.10604 9.26088L14.966 0.38088C15.064 0.270021 15.1829 0.179582 15.3159 0.114743C15.4489 0.0499043 15.5934 0.011939 15.7411 0.00302157C15.8888 -0.00589586 16.0368 0.0144099 16.1767 0.0627755C16.3165 0.111141 16.4454 0.186616 16.556 0.28488H16.55Z" fill="black"/>
</svg>
