<svg width="40" height="40" viewBox="0 0 40 40" fill="none" xmlns="http://www.w3.org/2000/svg">
<rect width="40" height="40" rx="20" fill="white"/>
<rect x="8" y="8" width="24" height="24" rx="12" fill="white"/>
<path d="M20.0667 26.6667C19.1334 26.6667 18.2585 26.4889 17.442 26.1333C16.6256 25.7778 15.9145 25.2973 15.3087 24.692C14.7029 24.0867 14.2223 23.3756 13.8667 22.5587C13.5112 21.7418 13.3334 20.8667 13.3334 19.9333C13.3334 18.3111 13.85 16.8807 14.8834 15.642C15.9167 14.4033 17.2334 13.6338 18.8334 13.3333C18.6334 14.4333 18.6945 15.5085 19.0167 16.5587C19.3389 17.6089 19.8945 18.5282 20.6834 19.3167C21.4723 20.1051 22.3918 20.6607 23.442 20.9833C24.4923 21.306 25.5672 21.3671 26.6667 21.1667C26.3778 22.7667 25.6112 24.0833 24.3667 25.1167C23.1223 26.15 21.6889 26.6667 20.0667 26.6667Z" fill="black"/>
</svg>
