<svg width="16" height="16" viewBox="0 0 16 16" fill="none" xmlns="http://www.w3.org/2000/svg">
<path fill-rule="evenodd" clip-rule="evenodd" d="M8.50987 4.796V6.493C8.86525 5.95168 9.35509 5.5119 9.93144 5.21671C10.5078 4.92152 11.1509 4.78103 11.7979 4.809C15.2529 4.809 15.9999 6.969 15.9999 9.779V15.5H12.7999V10.428C12.7999 9.218 12.5559 7.662 10.6719 7.662C8.84487 7.662 8.53287 8.979 8.53287 10.338V15.5H5.34287V4.796H8.50987ZM3.19987 2.106C3.19948 2.423 3.10551 2.73284 2.92975 2.99665C2.75399 3.26047 2.50426 3.46653 2.21187 3.589C1.9196 3.71048 1.59779 3.74226 1.2874 3.68029C0.977017 3.61832 0.692085 3.4654 0.46887 3.241C0.245236 3.01646 0.092985 2.73081 0.0312626 2.41997C-0.0304597 2.10913 0.00110298 1.78698 0.121981 1.49403C0.242859 1.20108 0.447655 0.950407 0.710617 0.773539C0.973579 0.596671 1.28297 0.501502 1.59987 0.5C1.81049 0.499999 2.01904 0.541582 2.21355 0.622364C2.40807 0.703147 2.58472 0.821539 2.73337 0.970748C2.88202 1.11996 2.99975 1.29705 3.0798 1.49186C3.15986 1.68668 3.20066 1.89538 3.19987 2.106Z" fill="#3B69B2"/>
<path d="M3.2 4.80902H0V15.5H3.2V4.80902Z" fill="#3B69B2"/>
</svg>
